<svg version="1.1" viewBox="0.0 0.0 128.0 128.0" fill="none" stroke="none" stroke-linecap="square" stroke-miterlimit="10" xmlns:xlink="http://www.w3.org/1999/xlink" xmlns="http://www.w3.org/2000/svg"><clipPath id="p.0"><path d="m0 0l128.0 0l0 128.0l-128.0 0l0 -128.0z" clip-rule="nonzero"/></clipPath><g clip-path="url(#p.0)"><path fill="#000000" fill-opacity="0.0" d="m0 0l128.0 0l0 128.0l-128.0 0z" fill-rule="evenodd"/><path fill="#000000" fill-opacity="0.0" d="m5.925068 83.33571l0 38.803146l38.897636 0l0 0" fill-rule="evenodd"/><path stroke="#ff0000" stroke-width="12.0" stroke-linejoin="round" stroke-linecap="butt" d="m5.925068 83.33571l0 38.803146l38.897636 0l0 0" fill-rule="evenodd"/><path fill="#000000" fill-opacity="0.0" d="m44.73891 5.906794l-38.897636 0l0 38.803146l0 0" fill-rule="evenodd"/><path stroke="#ff0000" stroke-width="12.0" stroke-linejoin="round" stroke-linecap="butt" d="m44.73891 5.906794l-38.897636 0l0 38.803146l0 0" fill-rule="evenodd"/><path fill="#000000" fill-opacity="0.0" d="m122.047485 44.723637l0 -38.80315l-38.897636 0l0 0" fill-rule="evenodd"/><path stroke="#ff0000" stroke-width="12.0" stroke-linejoin="round" stroke-linecap="butt" d="m122.047485 44.723637l0 -38.80315l-38.897636 0l0 0" fill-rule="evenodd"/><path fill="#000000" fill-opacity="0.0" d="m83.14753 122.14026l38.897636 0l0 -38.803154l0 0" fill-rule="evenodd"/><path stroke="#ff0000" stroke-width="12.0" stroke-linejoin="round" stroke-linecap="butt" d="m83.14753 122.14026l38.897636 0l0 -38.803154l0 0" fill-rule="evenodd"/><path fill="#000000" fill-opacity="0.0" d="m64.01665 34.91485l0 58.173225" fill-rule="evenodd"/><path stroke="#ff0000" stroke-width="8.0" stroke-linejoin="round" stroke-linecap="butt" d="m64.01665 34.91485l0 58.173225" fill-rule="evenodd"/><path fill="#000000" fill-opacity="0.0" d="m93.159195 64.01826l-58.330708 0" fill-rule="evenodd"/><path stroke="#ff0000" stroke-width="8.0" stroke-linejoin="round" stroke-linecap="butt" d="m93.159195 64.01826l-58.330708 0" fill-rule="evenodd"/></g></svg>